PathFileType	4	(X/Y/Z)	C:\Users\Basilio\Documents\Thesis Gigler\squatting_fais\c3dfiles\019\SJ_pre2\markers_experimental.trc
DataRate	CameraRate	NumFrames	NumMarkers	Units	OrigDataRate	OrigDataStartFrame	OrigNumFrames
200.000000	200.000000	4	59	mm	200.000000	798	1278
Frame#	Time	FHD			LBHD			RBHD			C7			T10			CLAV			LSHO			LUUPA			LMUPA			LDUPA			LLEP			LMEP			LRAD			LUL			LRFIN			RSHO			RUPA1			RMUPA			RDUPA			RLEP			RMEP			RRAD			RUL			RUFIN			LASI			RASI			USACR			LSACR			RSACR			LTHI1			LTHI2			LTHI3			LTHI4			LLFC			LTIB1			LTIB2			LTIB3			LTIB4			LLMAL			LMMAL			LHEE			LMT1			LMT2			LMT5			RTHI			RTHI2			RTHI3			RTHI4			RLFC			RTIB1			RTIB2			RTIB3			RTIB4			RLMAL			RMMAL			RHEE			RMT1			RMT2			RMT5			
		X1	Y1	Z1	X2	Y2	Z2	X3	Y3	Z3	X4	Y4	Z4	X5	Y5	Z5	X6	Y6	Z6	X7	Y7	Z7	X8	Y8	Z8	X9	Y9	Z9	X10	Y10	Z10	X11	Y11	Z11	X12	Y12	Z12	X13	Y13	Z13	X14	Y14	Z14	X15	Y15	Z15	X16	Y16	Z16	X17	Y17	Z17	X18	Y18	Z18	X19	Y19	Z19	X20	Y20	Z20	X21	Y21	Z21	X22	Y22	Z22	X23	Y23	Z23	X24	Y24	Z24	X25	Y25	Z25	X26	Y26	Z26	X27	Y27	Z27	X28	Y28	Z28	X29	Y29	Z29	X30	Y30	Z30	X31	Y31	Z31	X32	Y32	Z32	X33	Y33	Z33	X34	Y34	Z34	X35	Y35	Z35	X36	Y36	Z36	X37	Y37	Z37	X38	Y38	Z38	X39	Y39	Z39	X40	Y40	Z40	X41	Y41	Z41	X42	Y42	Z42	X43	Y43	Z43	X44	Y44	Z44	X45	Y45	Z45	X46	Y46	Z46	X47	Y47	Z47	X48	Y48	Z48	X49	Y49	Z49	X50	Y50	Z50	X51	Y51	Z51	X52	Y52	Z52	X53	Y53	Z53	X54	Y54	Z54	X55	Y55	Z55	X56	Y56	Z56	X57	Y57	Z57	X58	Y58	Z58	X59	Y59	Z59	

799	3.99	-57.22228240966798	2167.9375	-882.0947265625002	-209.1641693115235	2155.68359375	-1009.942077636719	-197.4789428710938	2154.861083984375	-870.664489746094	-258.5657653808594	1981.018188476563	-928.8514404296877	-316.6504211425782	1696.056030273438	-908.047058105469	-118.9894409179688	1929.863403320313	-939.2557373046877	-198.3857421875001	1961.299194335938	-1086.582641601563	-234.5034790039063	1824.645263671875	-1191.780029296875	-228.495590209961	1780.4228515625	-1170.351684570313	-258.8572082519532	1769.143188476563	-1220.140502929688	-311.7507629394532	1721.552368164063	-1269.015869140625	-374.1919860839844	1718.606323242188	-1235.643798828125	-280.8556518554688	1520.755126953125	-1109.066772460938	-264.6180114746094	1491.1279296875	-1167.675415039063	-238.2471923828126	1496.418823242188	-1073.542236328125	-171.5216064453125	1969.847045898438	-794.6801757812502	-251.7150115966797	1869.678588867188	-645.9863281250001	-223.2166442871094	1829.974609375	-641.4342041015626	-265.9022216796876	1817.765625	-600.5161743164064	-277.0780334472657	1745.83544921875	-562.6882934570314	-340.5397338867188	1750.2041015625	-584.0395507812501	-271.1988525390626	1524.341186523438	-696.9388427734376	-249.3423004150391	1498.1611328125	-642.0321044921876	-223.974349975586	1490.181762695313	-732.8590698242189	-209.8813781738282	1476.742919921875	-1014.689636230469	-193.6103515625001	1474.397705078125	-812.201843261719	-343.3455505371094	1562.961791992188	-900.1787719726565	-357.6684265136719	1530.810791015625	-926.1181640625002	-350.0898742675782	1533.125244140625	-870.2312622070315	-282.8517150878907	1233.705200195313	-1120.4697265625	-237.9794311523438	1161.651977539063	-1132.373413085938	-192.2448120117188	1169.795043945313	-1121.069580078125	-258.3241882324219	1104.057373046875	-1127.980590820313	-254.4717712402344	1006.236389160156	-1128.656005859375	-207.9434509277344	863.2056884765627	-1127.4248046875	-273.7144165039063	831.5434570312502	-1175.328735351563	-233.8410339355469	822.6215820312502	-1161.180053710938	-233.5386352539063	737.8112182617189	-1142.455810546875	-316.3579406738282	616.2171020507814	-1174.162109375	-281.5799255371094	608.8148803710939	-1098.266235351563	-367.3886413574219	590.1144409179689	-1116.94189453125	-179.6580657958985	496.1559143066407	-1137.121215820313	-182.8167877197266	497.7930603027345	-1176.160278320313	-239.3498229980469	492.3568420410157	-1218.852172851563	-252.5324859619141	1293.420043945313	-705.2442016601564	-215.1788635253907	1242.120971679688	-701.2061767578126	-185.8627014160157	1237.004028320313	-718.0302124023439	-239.2935028076172	1159.895141601563	-688.0763549804689	-269.9711303710938	997.8262329101565	-693.8654785156251	-227.8840332031251	811.9033203125002	-710.8524169921876	-291.4049682617188	744.3405151367189	-648.9207153320314	-253.1488952636719	736.3894042968751	-674.4525146484376	-257.5313720703126	687.3796386718751	-706.5800781250001	-326.3374938964844	609.7875366210939	-658.2154541015626	-298.7466735839844	603.0000610351564	-729.3494873046876	-381.5606384277344	588.4277954101564	-711.5394897460939	-200.764389038086	479.6034240722657	-698.6645507812501	-204.703109741211	484.7996520996095	-654.2359008789064	-255.5964965820313	483.1875305175782	-610.5419311523439	
800	3.995	-58.5118865966797	2168.463623046875	-881.9228515625002	-210.5983886718751	2156.317626953125	-1010.174194335938	-198.9578247070313	2155.3408203125	-870.9047851562502	-259.6498718261719	1981.19580078125	-929.066345214844	-316.5986938476563	1696.050170898438	-907.9808349609377	-120.0251770019532	1930.568969726563	-939.475524902344	-199.6761322021485	1961.615844726563	-1086.706909179688	-235.3366241455079	1824.871826171875	-1191.930541992188	-229.0361938476563	1780.686279296875	-1170.525756835938	-259.5115661621094	1769.27685546875	-1220.368896484375	-312.1683044433594	1721.317993164063	-1268.990600585938	-374.4489440917969	1717.970092773438	-1235.457397460938	-280.0820617675782	1520.6435546875	-1108.954467773438	-263.7709045410157	1490.998291015625	-1167.61962890625	-237.4949493408204	1496.439086914063	-1073.287231445313	-172.2050323486328	1970.896606445313	-794.3541259765627	-252.7781372070313	1870.015380859375	-646.1730957031251	-223.8372192382813	1830.674682617188	-641.4008178710939	-266.5473632812501	1818.219970703125	-600.6961059570314	-277.6358337402344	1746.356201171875	-562.7360229492189	-340.8825683593751	1750.197265625	-584.1312866210939	-270.7722167968751	1524.522583007813	-696.6622314453126	-248.6424713134766	1498.479858398438	-641.6895141601564	-223.4023437500001	1490.47802734375	-732.6870117187501	-209.3916931152344	1476.908569335938	-1014.462951660156	-193.2308959960938	1474.633422851563	-812.0276489257815	-342.9533691406251	1563.099487304688	-900.0230102539065	-357.3060302734376	1530.935302734375	-925.8857421875002	-349.3448181152344	1533.191162109375	-870.1360473632815	-282.9662780761719	1233.91552734375	-1120.298828125	-238.0892791748047	1161.79296875	-1132.42431640625	-192.4369049072266	1169.910400390625	-1121.295288085938	-258.5894165039063	1104.266235351563	-1128.045166015625	-254.6865234375001	1006.439208984375	-1128.937744140625	-208.5077056884766	863.300964355469	-1127.861572265625	-274.2923583984376	831.7282714843752	-1176.11279296875	-234.4538726806641	822.7986450195315	-1161.598510742188	-234.5682678222657	738.0662841796876	-1142.938232421875	-317.6342163085938	616.7365722656251	-1174.635375976563	-283.0780334472657	609.2363281250001	-1098.77001953125	-368.7537231445313	590.3440551757814	-1117.685668945313	-181.2210388183594	496.5326232910157	-1137.367309570313	-184.1460113525391	498.2750549316407	-1176.416625976563	-240.5747375488282	492.7043457031251	-1219.286254882813	-252.3321228027344	1293.686279296875	-704.9738159179689	-215.1067810058594	1242.281127929688	-700.7516479492189	-185.7755584716797	1237.124877929688	-717.5739746093751	-239.2169647216797	1160.118896484375	-687.5657348632814	-270.0526428222657	997.9587402343752	-693.2028198242189	-228.6349792480469	812.1684570312502	-710.1381225585939	-292.1954650878907	744.6027221679689	-648.1030883789064	-254.0298309326172	736.5676879882814	-673.6287841796876	-258.6939392089844	687.7312622070314	-705.8475952148439	-327.5173950195313	610.2586669921876	-657.4298706054689	-299.9705200195313	603.2920532226564	-728.5197753906251	-382.8611755371094	588.9536743164064	-710.5087280273439	-202.1691284179688	479.9758300781251	-698.2012329101564	-205.8780822753907	485.1827697753907	-653.7756347656251	-256.6127319335938	483.4024658203126	-609.9116821289064	
801	4	-60.13502502441408	2168.704833984375	-882.1480102539065	-212.7545623779297	2156.8310546875	-1010.337829589844	-200.4738769531251	2155.820556640625	-871.1354980468752	-260.5828552246094	1981.111572265625	-929.2437133789065	-316.6138610839844	1695.8623046875	-907.9602661132815	-120.9106216430664	1931.003173828125	-939.775329589844	-201.0062255859376	1961.638916015625	-1086.987548828125	-236.3443145751954	1824.84326171875	-1192.105590820313	-229.5175323486329	1780.703369140625	-1170.7958984375	-260.1573791503907	1769.081787109375	-1220.490478515625	-312.8659362792969	1720.922973632813	-1268.748779296875	-374.6578063964844	1717.155395507813	-1235.253295898438	-279.3476867675782	1520.434326171875	-1108.86328125	-262.9139099121094	1490.85107421875	-1167.540771484375	-236.4744567871094	1496.171020507813	-1072.835693359375	-173.4412994384766	1971.057373046875	-794.4282836914065	-253.6677703857422	1870.08154296875	-646.3910522460939	-224.4375305175782	1830.716552734375	-641.3729858398439	-267.2037353515626	1818.342651367188	-600.8005371093751	-277.9774780273438	1746.542358398438	-562.7255859375001	-341.1316833496094	1749.978881835938	-584.1254272460939	-270.3450927734376	1524.469360351563	-696.3314208984376	-247.9401092529297	1498.575805664063	-641.3360595703126	-222.8099365234376	1490.595336914063	-732.3888549804689	-208.8621673583985	1476.79345703125	-1014.196960449219	-192.787338256836	1474.526123046875	-811.838317871094	-342.5421447753907	1563.034790039063	-899.8838500976565	-356.8996582031251	1530.823120117188	-925.7673950195315	-348.9733581542969	1533.091796875	-870.019958496094	-283.1279602050782	1233.950073242188	-1120.066040039063	-238.5294036865235	1161.81689453125	-1132.507690429688	-192.6143951416016	1169.767700195313	-1121.52490234375	-258.9520568847657	1104.187133789063	-1128.096923828125	-254.944076538086	1006.401733398438	-1129.1591796875	-208.9810791015626	863.1909790039065	-1128.325561523438	-275.2431945800782	831.9543457031252	-1176.059448242188	-234.9908142089844	822.853942871094	-1162.337768554688	-235.6234893798829	738.0230102539064	-1143.35791015625	-319.0974426269532	616.9923095703126	-1175.239990234375	-284.5547180175782	609.3143310546876	-1099.243774414063	-370.3562011718751	590.4446411132814	-1118.215942382813	-182.6600341796875	496.7518005371095	-1137.635375976563	-185.4736785888672	498.5270080566407	-1176.660766601563	-241.7021789550782	492.9323730468751	-1219.567993164063	-252.1692352294922	1293.746459960938	-704.6365966796876	-214.925277709961	1242.18359375	-700.3750610351564	-185.6269226074219	1237.002319335938	-717.1845703125001	-239.3412170410157	1159.933471679688	-687.0723876953126	-270.2939453125001	998.0037231445315	-692.7289428710939	-229.4346008300782	812.1623535156252	-709.5468750000001	-293.2177429199219	744.8369140625001	-647.5015258789064	-255.0475006103516	736.6251831054689	-672.9591064453126	-259.7874755859376	687.7431030273439	-705.1153564453126	-328.7457275390626	610.4197998046876	-656.6624755859376	-301.1312866210938	603.4959106445314	-727.7413330078126	-384.3401489257814	589.0817260742189	-709.5054931640626	-203.496566772461	480.1556091308595	-697.8181762695314	-207.4285125732422	484.7171630859376	-653.4814453125001	-257.7477722167969	483.3833923339845	-609.3781738281251	
802	4.005	-61.6769142150879	2169.11328125	-882.4306640625002	-214.0891418457032	2156.838623046875	-1010.605102539063	-202.2179412841797	2155.896484375	-871.353454589844	-261.6882629394532	1980.765991210938	-929.4206542968752	-316.5868225097657	1695.3935546875	-907.885925292969	-121.9326858520508	1931.1728515625	-939.9546508789065	-202.2498779296876	1961.43359375	-1087.105346679688	-237.2332458496094	1824.594970703125	-1192.428344726563	-229.9002227783204	1780.458984375	-1171.051513671875	-260.6867065429688	1768.70458984375	-1220.609375	-313.0900573730469	1720.362670898438	-1268.949951171875	-375.0407409667969	1716.090942382813	-1235.053955078125	-278.8200073242188	1520.000122070313	-1108.855346679688	-262.2558593750001	1490.257568359375	-1167.356567382813	-235.7768707275391	1495.758544921875	-1072.480834960938	-174.6081848144532	1970.845947265625	-794.6608886718752	-254.3717346191407	1870.052368164063	-646.6572875976564	-224.9671020507813	1830.571166992188	-641.4871826171876	-267.7084655761719	1818.135498046875	-600.8666992187501	-278.2194213867188	1746.382446289063	-562.6892700195314	-341.3590087890626	1749.635131835938	-584.1445312500001	-269.7830505371094	1524.16552734375	-695.8962402343751	-247.3452911376954	1498.4931640625	-641.0454101562501	-222.2842559814454	1490.456909179688	-732.1406860351564	-208.4832611083985	1476.488647460938	-1013.939514160156	-192.4165649414063	1474.27880859375	-811.677185058594	-342.0918273925782	1562.797485351563	-899.7283325195315	-356.4877319335938	1530.496704101563	-925.6918945312502	-348.6975097656251	1532.89599609375	-869.9235839843752	-283.3677978515626	1233.701538085938	-1119.747802734375	-238.8927001953126	1161.465454101563	-1132.564331054688	-192.8990478515626	1169.440551757813	-1122.077514648438	-259.3297119140626	1103.918090820313	-1128.095336914063	-255.296859741211	1006.16796875	-1129.366821289063	-209.5220947265626	862.7351684570315	-1128.700927734375	-275.9209289550782	831.736022949219	-1176.381103515625	-235.6106109619141	822.5644531250002	-1162.607421875	-236.5906219482422	737.7727050781251	-1143.863403320313	-320.4241333007813	616.7604980468751	-1175.678588867188	-286.0335388183594	609.1246337890626	-1099.65380859375	-377.9957580566407	593.9372558593751	-1122.315795898438	-183.8907470703125	496.8784790039064	-1137.901489257813	-186.9266815185547	498.3505859375001	-1176.997802734375	-242.942855834961	492.8218078613282	-1219.972290039063	-251.8700408935547	1293.537841796875	-704.3493041992189	-214.8548431396485	1241.800903320313	-700.0834350585939	-185.513671875	1236.690673828125	-716.9517822265626	-239.1764068603516	1160.072021484375	-686.6552124023439	-270.6149291992188	997.7688598632815	-692.1718139648439	-230.2127838134766	811.7876586914065	-708.7639770507814	-294.3375854492188	744.7691040039064	-646.9346313476564	-255.9879760742188	736.4763793945314	-672.2197875976564	-260.6621398925782	687.4058227539064	-704.3682861328126	-329.9325866699219	610.2529296875001	-655.8758544921876	-302.3739624023438	603.4845581054689	-726.9436035156251	-385.6885681152345	588.8520507812501	-708.8110961914064	-204.3982543945313	479.849822998047	-697.3570556640626	-208.2585144042969	485.5459899902345	-652.7561645507814	-258.9072875976563	483.0699768066407	-608.8538818359376	
